<?xml version="1.0" encoding="iso-8859-1"?>
<!-- Generator: Adobe Illustrator 19.0.0, SVG Export Plug-In . SVG Version: 6.00 Build 0)  -->
<svg version="1.1" id="Capa_1" xmlns="http://www.w3.org/2000/svg" xmlns:xlink="http://www.w3.org/1999/xlink" x="0px" y="0px"
	 viewBox="0 0 512 512" style="enable-background:new 0 0 512 512;" xml:space="preserve">
<polygon style="fill:#E8596E;" points="403.104,218.49 108.896,218.49 80.644,188.4 115.429,91 396.571,91 431.356,188.4 "/>
<polygon style="fill:#DB2E44;" points="396.571,91 256,91 256,218.49 403.104,218.49 431.356,188.4 "/>
<polygon style="fill:#E4F7FF;" points="108.896,198.49 136.571,121 375.429,121 403.104,198.49 403.104,225.667 108.896,225.667 "/>
<polygon style="fill:#CBEDFD;" points="375.429,121 256,121 256,225.667 403.104,225.667 403.104,198.49 "/>
<path style="fill:#DB2E44;" d="M57.951,261H45c-24.813,0-45-20.187-45-45s20.187-45,45-45h30c24.813,0,45,20.187,45,45
	c0,3.042-0.308,6.088-0.914,9.052L57.951,261z"/>
<path style="fill:#B0283F;" d="M467,261h-12.966l-60.411-32.997C392.546,224.108,392,220.07,392,216c0-24.813,20.187-45,45-45h30
	c24.813,0,45,20.187,45,45S491.813,261,467,261z"/>
<polygon style="fill:#0E61C4;" points="126,421 31,421 31,381 126,371 "/>
<polygon style="fill:#0C4EAD;" points="481,421 386,421 386,371 481,381 "/>
<path style="fill:#E8596E;" d="M481,381H31V266c0-23.999,24.354-43.126,72.387-56.849C144.353,197.446,198.552,191,256,191
	s111.647,6.446,152.613,18.151C456.646,222.874,481,242.001,481,266V381z"/>
<g>
	<path style="fill:#DB2E44;" d="M408.613,209.151C367.647,197.446,313.448,191,256,191v190h225V266
		C481,242.001,456.646,222.874,408.613,209.151z"/>
	<rect x="186" y="301" style="fill:#DB2E44;" width="140" height="30"/>
</g>
<circle style="fill:#FDDA40;" cx="401" cy="296" r="30"/>
<circle style="fill:#FDE882;" cx="111" cy="296" r="30"/>
<rect x="256" y="301" style="fill:#B0283F;" width="70" height="30"/>
<g>
</g>
<g>
</g>
<g>
</g>
<g>
</g>
<g>
</g>
<g>
</g>
<g>
</g>
<g>
</g>
<g>
</g>
<g>
</g>
<g>
</g>
<g>
</g>
<g>
</g>
<g>
</g>
<g>
</g>
</svg>
