<svg height="512pt" viewBox="0 0 512 512" width="512pt" xmlns="http://www.w3.org/2000/svg"><path d="m392 15v482c0 8.398438-6.597656 15-15 15h-362c-8.402344 0-15-6.601562-15-15v-377l98.699219-18.601562 21.300781-101.398438h257c8.402344 0 15 6.597656 15 15zm0 0" fill="#fdf6c8"/><path d="m392 15v482c0 8.398438-6.597656 15-15 15h-181v-451.402344l.601562-60.597656h180.398438c8.402344 0 15 6.597656 15 15zm0 0" fill="#ffde8d"/><g fill="#ff9f00"><path d="m241 195c0 19.5-12.597656 36-30 42.300781v16.5c0 8.398438-6.597656 15-15 15s-15-6.601562-15-15v-16.800781c-9.902344-3.601562-18.601562-10.199219-24-19.5-4.199219-7.199219-1.800781-16.199219 5.398438-20.398438 7.203124-4.203124 16.5-1.800781 20.703124 5.398438 2.699219 4.5 7.5 7.5 12.898438 7.5 8.402344 0 15-6.601562 15-15 0-8.402344-6.597656-15-15-15-24.902344 0-45-20.101562-45-45 0-19.5 12.597656-36 30-42.300781v-17.101563c0-8.398437 6.597656-15 15-15s15 6.601563 15 15v17.402344c9.902344 3.601562 18.601562 10.199219 24 19.5 4.199219 7.199219 1.800781 16.199219-5.398438 20.402344-7.203124 4.199218-16.5 1.796875-20.703124-5.402344-2.699219-4.5-7.5-7.5-12.898438-7.5-8.402344 0-15 6.601562-15 15s6.597656 15 15 15c24.902344 0 45 20.097656 45 45zm0 0"/><path d="m241 317c0 8.398438-6.597656 15-15 15h-151c-8.402344 0-15-6.601562-15-15 0-8.402344 6.597656-15 15-15h151c8.402344 0 15 6.597656 15 15zm0 0"/><path d="m196 392h-121c-8.289062 0-15-6.710938-15-15s6.710938-15 15-15h121c8.289062 0 15 6.710938 15 15s-6.710938 15-15 15zm0 0"/><path d="m196 452h-121c-8.289062 0-15-6.710938-15-15s6.710938-15 15-15h121c8.289062 0 15 6.710938 15 15s-6.710938 15-15 15zm0 0"/></g><path d="m105 120c8.402344 0 15-6.601562 15-15v-105l-120 120zm0 0" fill="#ffe470"/><path d="m424.402344 166.800781c-13.5-11.101562-30-16.800781-47.402344-16.800781-5.398438 0-10.800781.597656-16.199219 1.800781-27 5.699219-49.800781 27.597657-56.398437 54.597657-3.902344 15.601562-3.003906 31.5 2.699218 45.902343 12.898438 32.398438 24.898438 69.5 24.898438 106.097657v18.601562c0 8.398438 6.597656 15 15 15h60c8.402344 0 15-8.699219 15-17.101562 0-47.097657 7.199219-86.898438 22.199219-116.898438 5.101562-10.199219 7.800781-21.300781 7.800781-33 0-22.800781-10.199219-43.800781-27.597656-58.199219zm0 0" fill="#ff3980"/><path d="m407 392h-30v-242c17.402344 0 33.898438 5.699219 47.402344 16.800781 17.398437 14.398438 27.597656 35.398438 27.597656 58.199219 0 11.699219-2.699219 22.800781-7.800781 33-15 30-22.199219 69.800781-22.199219 116.898438 0 8.402343-6.597656 17.101562-15 17.101562zm0 0" fill="#e02670"/><path d="m467 422h-180c-8.402344 0-15 6.597656-15 15v60c0 8.398438 6.597656 15 15 15h180c8.402344 0 15-6.601562 15-15v-60c0-8.402344-6.597656-15-15-15zm0 0" fill="#4a696f"/><path d="m482 437v60c0 8.398438-6.597656 15-15 15h-90v-90h90c8.402344 0 15 6.597656 15 15zm0 0" fill="#3e5959"/><path d="m467 362h-180c-24.902344 0-45 20.097656-45 45v30c0 8.398438 6.597656 15 15 15h240c8.402344 0 15-6.601562 15-15v-30c0-24.902344-20.097656-45-45-45zm0 0" fill="#ff5b5b"/><path d="m512 407v30c0 8.398438-6.597656 15-15 15h-120v-90h90c24.902344 0 45 20.097656 45 45zm0 0" fill="#ff3980"/><path d="m241 195c0 19.5-12.597656 36-30 42.300781v16.5c0 8.398438-6.597656 15-15 15v-58.800781c8.402344 0 15-6.601562 15-15 0-8.402344-6.597656-15-15-15v-30c24.902344 0 45 20.097656 45 45zm0 0" fill="#ff7816"/><path d="m196 120v-59.402344c8.402344 0 15 6.601563 15 15v17.402344c9.902344 3.601562 18.601562 10.199219 24 19.5 4.199219 7.199219 1.800781 16.199219-5.398438 20.402344-7.203124 4.199218-16.5 1.796875-20.703124-5.402344-2.699219-4.5-7.5-7.5-12.898438-7.5zm0 0" fill="#ff7816"/></svg>